<mxfile host="app.diagrams.net" modified="2022-10-12T18:38:30.003Z" agent="5.0 (X11)" etag="1-w8EaRhxPDd70EqWh2Q" version="20.4.0" type="github">
  <diagram id="UXS5X-3AyIeNQ8LnNXt3" name="Page-1">
    <mxGraphModel dx="3234" dy="2050" grid="0" gridSize="10" guides="1" tooltips="1" connect="1" arrows="1" fold="1" page="1" pageScale="1" pageWidth="827" pageHeight="1169" math="0" shadow="0">
      <root>
        <mxCell id="0" />
        <mxCell id="1" parent="0" />
        <mxCell id="lK4oPHqjt2ItCZ3dHyqP-54" value="" style="rounded=1;whiteSpace=wrap;html=1;fillColor=#f5f5f5;fontColor=#333333;strokeColor=#666666;" vertex="1" parent="1">
          <mxGeometry x="-914" y="-138" width="1040" height="1212" as="geometry" />
        </mxCell>
        <mxCell id="lK4oPHqjt2ItCZ3dHyqP-32" value="" style="rounded=1;whiteSpace=wrap;html=1;fillColor=#d5e8d4;strokeColor=#82b366;" vertex="1" parent="1">
          <mxGeometry x="-574" y="97" width="425" height="261" as="geometry" />
        </mxCell>
        <mxCell id="lK4oPHqjt2ItCZ3dHyqP-5" value="" style="rounded=1;whiteSpace=wrap;html=1;fillColor=#dae8fc;strokeColor=#6c8ebf;" vertex="1" parent="1">
          <mxGeometry x="-565" y="720.5" width="335" height="228" as="geometry" />
        </mxCell>
        <mxCell id="lK4oPHqjt2ItCZ3dHyqP-6" value="" style="aspect=fixed;perimeter=ellipsePerimeter;html=1;align=center;shadow=0;dashed=0;spacingTop=3;image;image=img/lib/active_directory/database_server.svg;" vertex="1" parent="1">
          <mxGeometry x="-416.27" y="730.5" width="60.27" height="73.5" as="geometry" />
        </mxCell>
        <mxCell id="lK4oPHqjt2ItCZ3dHyqP-7" value="" style="triangle;whiteSpace=wrap;html=1;rotation=-90;" vertex="1" parent="1">
          <mxGeometry x="-405.5" y="716" width="27" height="218" as="geometry" />
        </mxCell>
        <mxCell id="lK4oPHqjt2ItCZ3dHyqP-8" value="" style="sketch=0;points=[[0.015,0.015,0],[0.985,0.015,0],[0.985,0.985,0],[0.015,0.985,0],[0.25,0,0],[0.5,0,0],[0.75,0,0],[1,0.25,0],[1,0.5,0],[1,0.75,0],[0.75,1,0],[0.5,1,0],[0.25,1,0],[0,0.75,0],[0,0.5,0],[0,0.25,0]];verticalLabelPosition=bottom;html=1;verticalAlign=top;aspect=fixed;align=center;pointerEvents=1;shape=mxgraph.cisco19.dns_server;fillColor=#005073;strokeColor=none;" vertex="1" parent="1">
          <mxGeometry x="-446" y="852" width="27.500000000000004" height="50" as="geometry" />
        </mxCell>
        <mxCell id="lK4oPHqjt2ItCZ3dHyqP-9" value="" style="verticalLabelPosition=bottom;sketch=0;aspect=fixed;html=1;verticalAlign=top;strokeColor=none;align=center;outlineConnect=0;shape=mxgraph.citrix.dhcp_server;" vertex="1" parent="1">
          <mxGeometry x="-397.38" y="852" width="41.38" height="49" as="geometry" />
        </mxCell>
        <mxCell id="lK4oPHqjt2ItCZ3dHyqP-10" value="" style="shape=mxgraph.cisco.servers.file_server;html=1;pointerEvents=1;dashed=0;fillColor=#036897;strokeColor=#ffffff;strokeWidth=2;verticalLabelPosition=bottom;verticalAlign=top;align=center;outlineConnect=0;" vertex="1" parent="1">
          <mxGeometry x="-343" y="852" width="34" height="51" as="geometry" />
        </mxCell>
        <mxCell id="lK4oPHqjt2ItCZ3dHyqP-11" value="" style="image;html=1;image=img/lib/clip_art/networking/Print_Server_128x128.png" vertex="1" parent="1">
          <mxGeometry x="-301" y="863.5" width="51" height="29" as="geometry" />
        </mxCell>
        <mxCell id="lK4oPHqjt2ItCZ3dHyqP-12" value="" style="sketch=0;aspect=fixed;pointerEvents=1;shadow=0;dashed=0;html=1;strokeColor=none;labelPosition=center;verticalLabelPosition=bottom;verticalAlign=top;align=center;fillColor=#00188D;shape=mxgraph.mscae.enterprise.ad_fs" vertex="1" parent="1">
          <mxGeometry x="-507" y="846" width="40" height="50" as="geometry" />
        </mxCell>
        <mxCell id="lK4oPHqjt2ItCZ3dHyqP-13" value="AD DS" style="text;html=1;strokeColor=none;fillColor=none;align=center;verticalAlign=middle;whiteSpace=wrap;rounded=0;" vertex="1" parent="1">
          <mxGeometry x="-508" y="907" width="39" height="16" as="geometry" />
        </mxCell>
        <mxCell id="lK4oPHqjt2ItCZ3dHyqP-14" value="DNS" style="text;html=1;strokeColor=none;fillColor=none;align=center;verticalAlign=middle;whiteSpace=wrap;rounded=0;" vertex="1" parent="1">
          <mxGeometry x="-455.27" y="907" width="39" height="16" as="geometry" />
        </mxCell>
        <mxCell id="lK4oPHqjt2ItCZ3dHyqP-15" value="DHCP" style="text;html=1;strokeColor=none;fillColor=none;align=center;verticalAlign=middle;whiteSpace=wrap;rounded=0;" vertex="1" parent="1">
          <mxGeometry x="-400" y="907" width="39" height="16" as="geometry" />
        </mxCell>
        <mxCell id="lK4oPHqjt2ItCZ3dHyqP-16" value="File" style="text;html=1;strokeColor=none;fillColor=none;align=center;verticalAlign=middle;whiteSpace=wrap;rounded=0;" vertex="1" parent="1">
          <mxGeometry x="-348" y="910" width="39" height="16" as="geometry" />
        </mxCell>
        <mxCell id="lK4oPHqjt2ItCZ3dHyqP-17" value="Printer" style="text;html=1;strokeColor=none;fillColor=none;align=center;verticalAlign=middle;whiteSpace=wrap;rounded=0;" vertex="1" parent="1">
          <mxGeometry x="-295" y="910" width="39" height="16" as="geometry" />
        </mxCell>
        <mxCell id="lK4oPHqjt2ItCZ3dHyqP-18" value="Controleur de Domaine" style="text;html=1;strokeColor=none;fillColor=none;align=center;verticalAlign=middle;whiteSpace=wrap;rounded=0;" vertex="1" parent="1">
          <mxGeometry x="-553" y="738.5" width="86" height="16" as="geometry" />
        </mxCell>
        <mxCell id="lK4oPHqjt2ItCZ3dHyqP-19" value="&lt;div&gt;ABSTERGO-MASTER&lt;/div&gt;&lt;div&gt;Domain : abstergo.local&lt;/div&gt;&lt;div&gt;IPv4 : 169.254.138.246&lt;/div&gt;&lt;div&gt;IPv6: fe80::ed34:c1c4:38a7:8af6&lt;/div&gt;&lt;div&gt;Subnet Mask : 255.255.0.0&lt;/div&gt;&lt;div&gt;DNS Suffix : localdomain&lt;/div&gt;&lt;div&gt;Interface : eth0&lt;br&gt;&lt;/div&gt;" style="text;html=1;strokeColor=none;fillColor=none;align=center;verticalAlign=middle;whiteSpace=wrap;rounded=0;" vertex="1" parent="1">
          <mxGeometry x="-518" y="965" width="256" height="79" as="geometry" />
        </mxCell>
        <mxCell id="lK4oPHqjt2ItCZ3dHyqP-20" value="" style="shape=mxgraph.cisco.switches.virtual_layer_switch;html=1;pointerEvents=1;dashed=0;fillColor=#036897;strokeColor=#ffffff;strokeWidth=2;verticalLabelPosition=bottom;verticalAlign=top;align=center;outlineConnect=0;" vertex="1" parent="1">
          <mxGeometry x="-427.37" y="536" width="56.13" height="76" as="geometry" />
        </mxCell>
        <mxCell id="lK4oPHqjt2ItCZ3dHyqP-21" value="" style="aspect=fixed;perimeter=ellipsePerimeter;html=1;align=center;shadow=0;dashed=0;spacingTop=3;image;image=img/lib/active_directory/windows_server.svg;" vertex="1" parent="1">
          <mxGeometry x="-430.3" y="257" width="65.6" height="80" as="geometry" />
        </mxCell>
        <mxCell id="lK4oPHqjt2ItCZ3dHyqP-22" value="" style="shape=mxgraph.cisco.switches.virtual_layer_switch;html=1;pointerEvents=1;dashed=0;fillColor=#036897;strokeColor=#ffffff;strokeWidth=2;verticalLabelPosition=bottom;verticalAlign=top;align=center;outlineConnect=0;" vertex="1" parent="1">
          <mxGeometry x="-424.63" y="108" width="56.13" height="76" as="geometry" />
        </mxCell>
        <mxCell id="lK4oPHqjt2ItCZ3dHyqP-23" value="" style="aspect=fixed;perimeter=ellipsePerimeter;html=1;align=center;shadow=0;dashed=0;spacingTop=3;image;image=img/lib/active_directory/web_server.svg;" vertex="1" parent="1">
          <mxGeometry x="-834" y="754.5" width="64.8" height="81" as="geometry" />
        </mxCell>
        <mxCell id="lK4oPHqjt2ItCZ3dHyqP-24" value="" style="aspect=fixed;perimeter=ellipsePerimeter;html=1;align=center;shadow=0;dashed=0;spacingTop=3;image;image=img/lib/active_directory/generic_server.svg;" vertex="1" parent="1">
          <mxGeometry x="-111" y="753" width="46.2" height="82.5" as="geometry" />
        </mxCell>
        <mxCell id="lK4oPHqjt2ItCZ3dHyqP-25" value="&lt;div&gt;Serveur Web : TEST&lt;/div&gt;&lt;div&gt;IPv6: fe80::215:5dff:fec0:8101&lt;/div&gt;&lt;div&gt;Interace : eth0&lt;/div&gt;&lt;div&gt;Disk :&amp;nbsp; /dev/sda1&lt;/div&gt;&lt;div&gt;Services : web, apache, etc..&lt;br&gt;&lt;/div&gt;" style="text;html=1;strokeColor=none;fillColor=none;align=center;verticalAlign=middle;whiteSpace=wrap;rounded=0;" vertex="1" parent="1">
          <mxGeometry x="-895" y="861.5" width="171" height="30" as="geometry" />
        </mxCell>
        <mxCell id="lK4oPHqjt2ItCZ3dHyqP-26" value="&lt;div&gt;Serveur IPBX&lt;/div&gt;&lt;div&gt;IPv6 : fe80::ed34:c1c4:38a7:8102&lt;br&gt;&lt;/div&gt;&lt;div&gt;Disk : /dev/sda1&lt;/div&gt;&lt;div&gt;Web Administration url : https:\\192.168.106.5&lt;br&gt;&lt;/div&gt;" style="text;html=1;strokeColor=none;fillColor=none;align=center;verticalAlign=middle;whiteSpace=wrap;rounded=0;" vertex="1" parent="1">
          <mxGeometry x="-187" y="837" width="186.9" height="68" as="geometry" />
        </mxCell>
        <mxCell id="lK4oPHqjt2ItCZ3dHyqP-27" value="" style="sketch=0;points=[[0.5,0,0],[1,0.5,0],[0.5,1,0],[0,0.5,0],[0.145,0.145,0],[0.8555,0.145,0],[0.855,0.8555,0],[0.145,0.855,0]];verticalLabelPosition=bottom;html=1;verticalAlign=top;aspect=fixed;align=center;pointerEvents=1;shape=mxgraph.cisco19.rect;prIcon=router;fillColor=#FAFAFA;strokeColor=#005073;rotation=-45;" vertex="1" parent="1">
          <mxGeometry x="-427.37" y="411" width="59.75" height="59.75" as="geometry" />
        </mxCell>
        <mxCell id="lK4oPHqjt2ItCZ3dHyqP-28" value="" style="sketch=0;points=[[0.5,0,0],[1,0.5,0],[0.5,1,0],[0,0.5,0],[0.145,0.145,0],[0.8555,0.145,0],[0.855,0.8555,0],[0.145,0.855,0]];verticalLabelPosition=bottom;html=1;verticalAlign=top;aspect=fixed;align=center;pointerEvents=1;shape=mxgraph.cisco19.rect;prIcon=router;fillColor=#FAFAFA;strokeColor=#005073;rotation=-45;" vertex="1" parent="1">
          <mxGeometry x="-426.44" width="59.75" height="59.75" as="geometry" />
        </mxCell>
        <mxCell id="lK4oPHqjt2ItCZ3dHyqP-29" value="" style="sketch=0;aspect=fixed;pointerEvents=1;shadow=0;dashed=0;html=1;labelPosition=center;verticalLabelPosition=bottom;verticalAlign=top;align=center;shape=mxgraph.mscae.enterprise.internet_hollow;fillColor=#dae8fc;strokeColor=#6c8ebf;" vertex="1" parent="1">
          <mxGeometry x="-491.24" y="-303" width="183.87" height="114" as="geometry" />
        </mxCell>
        <mxCell id="lK4oPHqjt2ItCZ3dHyqP-30" value="Internet" style="text;html=1;strokeColor=none;fillColor=none;align=center;verticalAlign=middle;whiteSpace=wrap;rounded=0;" vertex="1" parent="1">
          <mxGeometry x="-424.63" y="-246" width="60" height="30" as="geometry" />
        </mxCell>
        <mxCell id="lK4oPHqjt2ItCZ3dHyqP-33" value="Zone Hyper V" style="text;html=1;strokeColor=none;fillColor=none;align=center;verticalAlign=middle;whiteSpace=wrap;rounded=0;" vertex="1" parent="1">
          <mxGeometry x="-561" y="108" width="60" height="30" as="geometry" />
        </mxCell>
        <mxCell id="lK4oPHqjt2ItCZ3dHyqP-34" value="" style="endArrow=none;html=1;rounded=0;strokeWidth=2;entryX=0;entryY=1;entryDx=0;entryDy=0;entryPerimeter=0;exitX=0.75;exitY=0;exitDx=0;exitDy=0;" edge="1" parent="1" source="lK4oPHqjt2ItCZ3dHyqP-23" target="lK4oPHqjt2ItCZ3dHyqP-20">
          <mxGeometry width="50" height="50" relative="1" as="geometry">
            <mxPoint x="-406" y="570" as="sourcePoint" />
            <mxPoint x="-356" y="520" as="targetPoint" />
          </mxGeometry>
        </mxCell>
        <mxCell id="lK4oPHqjt2ItCZ3dHyqP-35" value="" style="endArrow=none;html=1;rounded=0;strokeWidth=2;exitX=0.5;exitY=1;exitDx=0;exitDy=0;exitPerimeter=0;entryX=0.5;entryY=0;entryDx=0;entryDy=0;" edge="1" parent="1" source="lK4oPHqjt2ItCZ3dHyqP-20" target="lK4oPHqjt2ItCZ3dHyqP-5">
          <mxGeometry width="50" height="50" relative="1" as="geometry">
            <mxPoint x="-406" y="570" as="sourcePoint" />
            <mxPoint x="-356" y="520" as="targetPoint" />
          </mxGeometry>
        </mxCell>
        <mxCell id="lK4oPHqjt2ItCZ3dHyqP-36" value="" style="endArrow=none;html=1;rounded=0;strokeWidth=2;exitX=0;exitY=0;exitDx=0;exitDy=0;entryX=0.94;entryY=0.96;entryDx=0;entryDy=0;entryPerimeter=0;" edge="1" parent="1" source="lK4oPHqjt2ItCZ3dHyqP-24" target="lK4oPHqjt2ItCZ3dHyqP-20">
          <mxGeometry width="50" height="50" relative="1" as="geometry">
            <mxPoint x="-406" y="570" as="sourcePoint" />
            <mxPoint x="-356" y="520" as="targetPoint" />
          </mxGeometry>
        </mxCell>
        <mxCell id="lK4oPHqjt2ItCZ3dHyqP-37" value="" style="endArrow=none;html=1;rounded=0;strokeWidth=2;exitX=0.145;exitY=0.855;exitDx=0;exitDy=0;exitPerimeter=0;" edge="1" parent="1" source="lK4oPHqjt2ItCZ3dHyqP-27" target="lK4oPHqjt2ItCZ3dHyqP-20">
          <mxGeometry width="50" height="50" relative="1" as="geometry">
            <mxPoint x="-406" y="570" as="sourcePoint" />
            <mxPoint x="-356" y="520" as="targetPoint" />
          </mxGeometry>
        </mxCell>
        <mxCell id="lK4oPHqjt2ItCZ3dHyqP-38" value="" style="endArrow=none;html=1;rounded=0;strokeWidth=2;entryX=0.5;entryY=1;entryDx=0;entryDy=0;exitX=0.8555;exitY=0.145;exitDx=0;exitDy=0;exitPerimeter=0;" edge="1" parent="1" source="lK4oPHqjt2ItCZ3dHyqP-27" target="lK4oPHqjt2ItCZ3dHyqP-21">
          <mxGeometry width="50" height="50" relative="1" as="geometry">
            <mxPoint x="-406" y="570" as="sourcePoint" />
            <mxPoint x="-356" y="520" as="targetPoint" />
          </mxGeometry>
        </mxCell>
        <mxCell id="lK4oPHqjt2ItCZ3dHyqP-39" value="" style="endArrow=none;html=1;rounded=0;strokeWidth=2;entryX=0.5;entryY=1;entryDx=0;entryDy=0;entryPerimeter=0;" edge="1" parent="1" target="lK4oPHqjt2ItCZ3dHyqP-22">
          <mxGeometry width="50" height="50" relative="1" as="geometry">
            <mxPoint x="-397" y="257" as="sourcePoint" />
            <mxPoint x="-356" y="420" as="targetPoint" />
          </mxGeometry>
        </mxCell>
        <mxCell id="lK4oPHqjt2ItCZ3dHyqP-40" value="" style="endArrow=none;html=1;rounded=0;strokeWidth=2;entryX=0.145;entryY=0.855;entryDx=0;entryDy=0;entryPerimeter=0;exitX=0.5;exitY=0;exitDx=0;exitDy=0;exitPerimeter=0;" edge="1" parent="1" source="lK4oPHqjt2ItCZ3dHyqP-22" target="lK4oPHqjt2ItCZ3dHyqP-28">
          <mxGeometry width="50" height="50" relative="1" as="geometry">
            <mxPoint x="-406" y="537" as="sourcePoint" />
            <mxPoint x="-356" y="487" as="targetPoint" />
          </mxGeometry>
        </mxCell>
        <mxCell id="lK4oPHqjt2ItCZ3dHyqP-43" value="" style="endArrow=none;html=1;rounded=0;strokeWidth=2;entryX=0.5;entryY=1;entryDx=0;entryDy=0;entryPerimeter=0;exitX=0.8555;exitY=0.145;exitDx=0;exitDy=0;exitPerimeter=0;" edge="1" parent="1" source="lK4oPHqjt2ItCZ3dHyqP-28" target="lK4oPHqjt2ItCZ3dHyqP-29">
          <mxGeometry width="50" height="50" relative="1" as="geometry">
            <mxPoint x="-406" y="270" as="sourcePoint" />
            <mxPoint x="-356" y="220" as="targetPoint" />
          </mxGeometry>
        </mxCell>
        <mxCell id="lK4oPHqjt2ItCZ3dHyqP-44" value="" style="endArrow=none;html=1;rounded=0;strokeWidth=2;entryX=0.5;entryY=1;entryDx=0;entryDy=0;entryPerimeter=0;exitX=0.855;exitY=0.8555;exitDx=0;exitDy=0;exitPerimeter=0;" edge="1" parent="1" source="lK4oPHqjt2ItCZ3dHyqP-27">
          <mxGeometry width="50" height="50" relative="1" as="geometry">
            <mxPoint x="-406" y="270" as="sourcePoint" />
            <mxPoint x="-69" y="59.75" as="targetPoint" />
            <Array as="points">
              <mxPoint x="-69" y="436" />
            </Array>
          </mxGeometry>
        </mxCell>
        <mxCell id="lK4oPHqjt2ItCZ3dHyqP-45" value="Default gateway : 172.20.16.1" style="text;html=1;strokeColor=none;fillColor=none;align=center;verticalAlign=middle;whiteSpace=wrap;rounded=0;" vertex="1" parent="1">
          <mxGeometry x="-351" y="22.25" width="163" height="21.75" as="geometry" />
        </mxCell>
        <mxCell id="lK4oPHqjt2ItCZ3dHyqP-48" value="" style="sketch=0;points=[[0.5,0,0],[1,0.5,0],[0.5,1,0],[0,0.5,0],[0.145,0.145,0],[0.8555,0.145,0],[0.855,0.8555,0],[0.145,0.855,0]];verticalLabelPosition=bottom;html=1;verticalAlign=top;aspect=fixed;align=center;pointerEvents=1;shape=mxgraph.cisco19.rect;prIcon=router;fillColor=#FAFAFA;strokeColor=#005073;rotation=-45;" vertex="1" parent="1">
          <mxGeometry x="-98.87" y="-128.87" width="59.75" height="59.75" as="geometry" />
        </mxCell>
        <mxCell id="lK4oPHqjt2ItCZ3dHyqP-49" value="" style="endArrow=none;html=1;rounded=0;strokeWidth=2;entryX=0.8555;entryY=0.145;entryDx=0;entryDy=0;entryPerimeter=0;exitX=0.954;exitY=0.64;exitDx=0;exitDy=0;exitPerimeter=0;" edge="1" parent="1" source="lK4oPHqjt2ItCZ3dHyqP-29" target="lK4oPHqjt2ItCZ3dHyqP-48">
          <mxGeometry width="50" height="50" relative="1" as="geometry">
            <mxPoint x="-406" y="303" as="sourcePoint" />
            <mxPoint x="-356" y="253" as="targetPoint" />
            <Array as="points">
              <mxPoint x="-69" y="-230" />
            </Array>
          </mxGeometry>
        </mxCell>
        <mxCell id="lK4oPHqjt2ItCZ3dHyqP-50" value="" style="endArrow=none;html=1;rounded=0;strokeWidth=2;entryX=0.145;entryY=0.855;entryDx=0;entryDy=0;entryPerimeter=0;" edge="1" parent="1" target="lK4oPHqjt2ItCZ3dHyqP-48">
          <mxGeometry width="50" height="50" relative="1" as="geometry">
            <mxPoint x="-68.99894115417374" y="14.75" as="sourcePoint" />
            <mxPoint x="-356" y="253" as="targetPoint" />
          </mxGeometry>
        </mxCell>
        <mxCell id="lK4oPHqjt2ItCZ3dHyqP-51" value="" style="shape=mxgraph.cisco.switches.virtual_layer_switch;html=1;pointerEvents=1;dashed=0;fillColor=#036897;strokeColor=#ffffff;strokeWidth=2;verticalLabelPosition=bottom;verticalAlign=top;align=center;outlineConnect=0;" vertex="1" parent="1">
          <mxGeometry x="-95.25" y="9" width="56.13" height="76" as="geometry" />
        </mxCell>
        <mxCell id="lK4oPHqjt2ItCZ3dHyqP-52" value="Master Client" style="verticalLabelPosition=bottom;html=1;verticalAlign=top;align=center;strokeColor=none;fillColor=#00BEF2;shape=mxgraph.azure.computer;pointerEvents=1;" vertex="1" parent="1">
          <mxGeometry x="45" y="24.5" width="50" height="45" as="geometry" />
        </mxCell>
        <mxCell id="lK4oPHqjt2ItCZ3dHyqP-53" value="" style="endArrow=none;html=1;rounded=0;strokeWidth=2;entryX=0;entryY=0.5;entryDx=0;entryDy=0;entryPerimeter=0;" edge="1" parent="1" source="lK4oPHqjt2ItCZ3dHyqP-51" target="lK4oPHqjt2ItCZ3dHyqP-52">
          <mxGeometry width="50" height="50" relative="1" as="geometry">
            <mxPoint x="-406" y="303" as="sourcePoint" />
            <mxPoint x="-356" y="253" as="targetPoint" />
          </mxGeometry>
        </mxCell>
        <mxCell id="lK4oPHqjt2ItCZ3dHyqP-55" value="Espace Virtualisé" style="text;html=1;strokeColor=none;fillColor=none;align=center;verticalAlign=middle;whiteSpace=wrap;rounded=0;" vertex="1" parent="1">
          <mxGeometry x="-829.2" y="-85" width="105.2" height="22" as="geometry" />
        </mxCell>
        <mxCell id="lK4oPHqjt2ItCZ3dHyqP-56" value="&lt;div&gt;Serveur HyperV&lt;/div&gt;&lt;div&gt;Name : ABSTERGO-SERV&lt;/div&gt;&lt;div&gt;OS : Windows Server 2016&lt;/div&gt;&lt;div&gt;IPv4 : 172.20.16.144&lt;/div&gt;&lt;div&gt;Subnet Mask : 255.255.240.0&lt;/div&gt;&lt;div&gt;Interface : eth1&lt;/div&gt;&lt;div&gt;DNS Suffixe NextGen.cesi&lt;br&gt;&lt;/div&gt;" style="text;html=1;strokeColor=none;fillColor=none;align=center;verticalAlign=middle;whiteSpace=wrap;rounded=0;" vertex="1" parent="1">
          <mxGeometry x="-322" y="244" width="164" height="98" as="geometry" />
        </mxCell>
        <mxCell id="lK4oPHqjt2ItCZ3dHyqP-57" value="" style="endArrow=none;html=1;rounded=0;strokeWidth=2;exitX=0.145;exitY=0.145;exitDx=0;exitDy=0;exitPerimeter=0;entryX=0.145;entryY=0.145;entryDx=0;entryDy=0;entryPerimeter=0;" edge="1" parent="1" source="lK4oPHqjt2ItCZ3dHyqP-27" target="lK4oPHqjt2ItCZ3dHyqP-28">
          <mxGeometry width="50" height="50" relative="1" as="geometry">
            <mxPoint x="-406" y="274" as="sourcePoint" />
            <mxPoint x="-356" y="224" as="targetPoint" />
            <Array as="points">
              <mxPoint x="-720" y="449" />
              <mxPoint x="-720" y="30" />
            </Array>
          </mxGeometry>
        </mxCell>
      </root>
    </mxGraphModel>
  </diagram>
</mxfile>
